<svg width="19" height="19" viewBox="0 0 19 19" fill="none" xmlns="http://www.w3.org/2000/svg">
<path d="M14.4359 10.0828L10.4063 8.59375L8.92188 4.56094C8.83397 4.32213 8.67494 4.11604 8.46622 3.97046C8.25751 3.82488 8.00916 3.74682 7.75469 3.74682C7.50022 3.74682 7.25187 3.82488 7.04316 3.97046C6.83444 4.11604 6.67541 4.32213 6.5875 4.56094L5.09375 8.59375L1.06094 10.0781C0.822134 10.166 0.616039 10.3251 0.47046 10.5338C0.324881 10.7425 0.246826 10.9908 0.246826 11.2453C0.246826 11.4998 0.324881 11.7481 0.47046 11.9568C0.616039 12.1656 0.822134 12.3246 1.06094 12.4125L5.09375 13.9062L6.57813 17.9391C6.66603 18.1779 6.82507 18.384 7.03378 18.5295C7.2425 18.6751 7.49085 18.7532 7.74532 18.7532C7.99979 18.7532 8.24813 18.6751 8.45685 18.5295C8.66556 18.384 8.8246 18.1779 8.9125 17.9391L10.4063 13.9062L14.4391 12.4219C14.6779 12.334 14.884 12.1749 15.0295 11.9662C15.1751 11.7575 15.2532 11.5092 15.2532 11.2547C15.2532 11.0002 15.1751 10.7519 15.0295 10.5432C14.884 10.3344 14.6779 10.1754 14.4391 10.0875L14.4359 10.0828ZM9.70313 12.8297C9.61829 12.861 9.54125 12.9103 9.47731 12.9742C9.41338 13.0381 9.36408 13.1152 9.33281 13.2L7.75 17.4883L6.17031 13.2031C6.1391 13.1174 6.08949 13.0395 6.02498 12.975C5.96046 12.9105 5.88261 12.8609 5.79688 12.8297L1.51172 11.25L5.79688 9.67031C5.88261 9.6391 5.96046 9.58949 6.02498 9.52497C6.08949 9.46046 6.1391 9.3826 6.17031 9.29688L7.75 5.01172L9.32969 9.29688C9.36096 9.38171 9.41026 9.45875 9.47419 9.52269C9.53812 9.58662 9.61517 9.63592 9.7 9.66719L13.9883 11.25L9.70313 12.8297ZM10.25 3.125C10.25 2.95924 10.3158 2.80027 10.4331 2.68306C10.5503 2.56585 10.7092 2.5 10.875 2.5H12.125V1.25C12.125 1.08424 12.1908 0.925268 12.3081 0.808058C12.4253 0.690848 12.5842 0.625 12.75 0.625C12.9158 0.625 13.0747 0.690848 13.1919 0.808058C13.3092 0.925268 13.375 1.08424 13.375 1.25V2.5H14.625C14.7908 2.5 14.9497 2.56585 15.0669 2.68306C15.1842 2.80027 15.25 2.95924 15.25 3.125C15.25 3.29076 15.1842 3.44973 15.0669 3.56694C14.9497 3.68415 14.7908 3.75 14.625 3.75H13.375V5C13.375 5.16576 13.3092 5.32473 13.1919 5.44194C13.0747 5.55915 12.9158 5.625 12.75 5.625C12.5842 5.625 12.4253 5.55915 12.3081 5.44194C12.1908 5.32473 12.125 5.16576 12.125 5V3.75H10.875C10.7092 3.75 10.5503 3.68415 10.4331 3.56694C10.3158 3.44973 10.25 3.29076 10.25 3.125ZM18.375 6.875C18.375 7.04076 18.3092 7.19973 18.1919 7.31694C18.0747 7.43415 17.9158 7.5 17.75 7.5H17.125V8.125C17.125 8.29076 17.0592 8.44973 16.9419 8.56694C16.8247 8.68415 16.6658 8.75 16.5 8.75C16.3342 8.75 16.1753 8.68415 16.0581 8.56694C15.9408 8.44973 15.875 8.29076 15.875 8.125V7.5H15.25C15.0842 7.5 14.9253 7.43415 14.8081 7.31694C14.6908 7.19973 14.625 7.04076 14.625 6.875C14.625 6.70924 14.6908 6.55027 14.8081 6.43306C14.9253 6.31585 15.0842 6.25 15.25 6.25H15.875V5.625C15.875 5.45924 15.9408 5.30027 16.0581 5.18306C16.1753 5.06585 16.3342 5 16.5 5C16.6658 5 16.8247 5.06585 16.9419 5.18306C17.0592 5.30027 17.125 5.45924 17.125 5.625V6.25H17.75C17.9158 6.25 18.0747 6.31585 18.1919 6.43306C18.3092 6.55027 18.375 6.70924 18.375 6.875Z" fill="white"/>
</svg>
