<svg width="20" height="21" viewBox="0 0 20 21" fill="none" xmlns="http://www.w3.org/2000/svg">
<path d="M19 5.66562C18.8235 5.75704 18.6178 5.77462 18.4283 5.7145C18.2388 5.65438 18.0809 5.52147 17.9894 5.34499C17.2735 3.93076 16.1899 2.73546 14.8525 1.88468C14.7692 1.83211 14.697 1.76364 14.6401 1.68317C14.5832 1.60271 14.5427 1.51183 14.521 1.41572C14.4992 1.31961 14.4966 1.22016 14.5133 1.12304C14.5299 1.02591 14.5656 0.933027 14.6181 0.849679C14.6707 0.766331 14.7392 0.694153 14.8196 0.637267C14.9001 0.58038 14.991 0.5399 15.0871 0.518136C15.1832 0.496372 15.2827 0.493752 15.3798 0.510424C15.4769 0.527096 15.5698 0.562734 15.6531 0.615304C17.2118 1.61331 18.4775 3.00739 19.3206 4.65499C19.4121 4.83154 19.4296 5.03717 19.3695 5.22667C19.3094 5.41618 19.1765 5.57406 19 5.66562ZM1.34783 5.74999C1.48523 5.74993 1.61998 5.71213 1.73736 5.64071C1.85474 5.56929 1.95025 5.46699 2.01346 5.34499C2.72933 3.93076 3.81291 2.73546 5.15033 1.88468C5.31866 1.77851 5.43792 1.60982 5.48187 1.41572C5.52583 1.22162 5.49087 1.01801 5.38471 0.849679C5.27854 0.681349 5.10985 0.56209 4.91575 0.518136C4.72165 0.474182 4.51804 0.509134 4.34971 0.615304C2.79102 1.61331 1.52537 3.00739 0.682206 4.65499C0.622991 4.76929 0.594192 4.89691 0.598581 5.02556C0.602969 5.15421 0.640397 5.27957 0.707263 5.38957C0.774128 5.49957 0.868181 5.5905 0.980369 5.65363C1.09256 5.71675 1.2191 5.74994 1.34783 5.74999ZM18.7947 15.4944C18.9276 15.7222 18.998 15.9811 18.9989 16.2448C18.9998 16.5086 18.9312 16.7679 18.7999 16.9967C18.6686 17.2255 18.4793 17.4156 18.251 17.5478C18.0228 17.6801 17.7638 17.7498 17.5 17.75H13.675C13.5029 18.5977 13.043 19.3598 12.3732 19.9073C11.7035 20.4547 10.865 20.7537 10 20.7537C9.135 20.7537 8.29658 20.4547 7.62682 19.9073C6.95707 19.3598 6.49715 18.5977 6.32502 17.75H2.50002C2.23641 17.7495 1.9776 17.6795 1.74965 17.5471C1.5217 17.4147 1.33266 17.2246 1.20158 16.9959C1.0705 16.7672 1.002 16.508 1.00299 16.2444C1.00398 15.9808 1.07441 15.7221 1.20721 15.4944C2.05189 14.0366 2.50002 11.9637 2.50002 9.49999C2.50002 7.51087 3.29019 5.60321 4.69672 4.19669C6.10324 2.79017 8.01089 1.99999 10 1.99999C11.9891 1.99999 13.8968 2.79017 15.3033 4.19669C16.7098 5.60321 17.5 7.51087 17.5 9.49999C17.5 11.9628 17.9481 14.0356 18.7947 15.4944ZM12.1206 17.75H7.87939C8.03478 18.1882 8.32209 18.5675 8.70183 18.8357C9.08157 19.104 9.53509 19.248 10 19.248C10.465 19.248 10.9185 19.104 11.2982 18.8357C11.6779 18.5675 11.9653 18.1882 12.1206 17.75ZM17.5 16.25C16.5025 14.5372 16 12.2666 16 9.49999C16 7.90869 15.3679 6.38257 14.2427 5.25735C13.1174 4.13213 11.5913 3.49999 10 3.49999C8.40872 3.49999 6.8826 4.13213 5.75738 5.25735C4.63216 6.38257 4.00002 7.90869 4.00002 9.49999C4.00002 12.2675 3.49564 14.5381 2.50002 16.25H17.5Z" fill="#616161"/>
</svg>
