<svg width="18" height="18" viewBox="0 0 18 18" fill="none" xmlns="http://www.w3.org/2000/svg">
<path d="M4.5 0.750002C3.75832 0.750002 3.0333 0.969935 2.41661 1.38199C1.79993 1.79405 1.31928 2.37972 1.03545 3.06494C0.751625 3.75016 0.677362 4.50416 0.822057 5.23159C0.966751 5.95902 1.3239 6.6272 1.84835 7.15165C2.3728 7.6761 3.04098 8.03325 3.76841 8.17795C4.49584 8.32264 5.24984 8.24838 5.93506 7.96455C6.62029 7.68072 7.20596 7.20007 7.61801 6.58339C8.03007 5.96671 8.25 5.24168 8.25 4.5C8.25 3.50544 7.85491 2.55161 7.15165 1.84835C6.44839 1.14509 5.49456 0.750002 4.5 0.750002ZM4.5 6.75C4.05499 6.75 3.61998 6.61804 3.24997 6.37081C2.87996 6.12358 2.59157 5.77217 2.42127 5.36104C2.25098 4.94991 2.20642 4.49751 2.29323 4.06105C2.38005 3.62459 2.59434 3.22368 2.90901 2.90901C3.22368 2.59434 3.62459 2.38005 4.06105 2.29323C4.49751 2.20642 4.94991 2.25098 5.36104 2.42127C5.77217 2.59157 6.12358 2.87996 6.37081 3.24997C6.61804 3.61998 6.75 4.05499 6.75 4.5C6.75 5.09674 6.51295 5.66904 6.09099 6.09099C5.66904 6.51295 5.09674 6.75 4.5 6.75ZM13.5 8.25C14.2417 8.25 14.9667 8.03007 15.5834 7.61801C16.2001 7.20596 16.6807 6.62029 16.9646 5.93506C17.2484 5.24984 17.3226 4.49584 17.1779 3.76841C17.0333 3.04098 16.6761 2.3728 16.1517 1.84835C15.6272 1.3239 14.959 0.966751 14.2316 0.822057C13.5042 0.677362 12.7502 0.751625 12.0649 1.03545C11.3797 1.31928 10.794 1.79993 10.382 2.41661C9.96993 3.0333 9.75 3.75832 9.75 4.5C9.75 5.49456 10.1451 6.44839 10.8484 7.15165C11.5516 7.85491 12.5054 8.25 13.5 8.25ZM13.5 2.25C13.945 2.25 14.38 2.38196 14.75 2.6292C15.12 2.87643 15.4084 3.22783 15.5787 3.63896C15.749 4.0501 15.7936 4.5025 15.7068 4.93895C15.62 5.37541 15.4057 5.77632 15.091 6.09099C14.7763 6.40566 14.3754 6.61995 13.939 6.70677C13.5025 6.79359 13.0501 6.74903 12.639 6.57873C12.2278 6.40843 11.8764 6.12005 11.6292 5.75003C11.382 5.38002 11.25 4.94501 11.25 4.5C11.25 3.90326 11.4871 3.33097 11.909 2.90901C12.331 2.48705 12.9033 2.25 13.5 2.25ZM4.5 9.75C3.75832 9.75 3.0333 9.96993 2.41661 10.382C1.79993 10.794 1.31928 11.3797 1.03545 12.0649C0.751625 12.7502 0.677362 13.5042 0.822057 14.2316C0.966751 14.959 1.3239 15.6272 1.84835 16.1517C2.3728 16.6761 3.04098 17.0333 3.76841 17.1779C4.49584 17.3226 5.24984 17.2484 5.93506 16.9646C6.62029 16.6807 7.20596 16.2001 7.61801 15.5834C8.03007 14.9667 8.25 14.2417 8.25 13.5C8.25 12.5054 7.85491 11.5516 7.15165 10.8484C6.44839 10.1451 5.49456 9.75 4.5 9.75ZM4.5 15.75C4.05499 15.75 3.61998 15.618 3.24997 15.3708C2.87996 15.1236 2.59157 14.7722 2.42127 14.361C2.25098 13.9499 2.20642 13.4975 2.29323 13.061C2.38005 12.6246 2.59434 12.2237 2.90901 11.909C3.22368 11.5943 3.62459 11.3801 4.06105 11.2932C4.49751 11.2064 4.94991 11.251 5.36104 11.4213C5.77217 11.5916 6.12358 11.88 6.37081 12.25C6.61804 12.62 6.75 13.055 6.75 13.5C6.75 14.0967 6.51295 14.669 6.09099 15.091C5.66904 15.5129 5.09674 15.75 4.5 15.75ZM13.5 9.75C12.7583 9.75 12.0333 9.96993 11.4166 10.382C10.7999 10.794 10.3193 11.3797 10.0355 12.0649C9.75162 12.7502 9.67736 13.5042 9.82206 14.2316C9.96675 14.959 10.3239 15.6272 10.8484 16.1517C11.3728 16.6761 12.041 17.0333 12.7684 17.1779C13.4958 17.3226 14.2498 17.2484 14.9351 16.9646C15.6203 16.6807 16.206 16.2001 16.618 15.5834C17.0301 14.9667 17.25 14.2417 17.25 13.5C17.25 12.5054 16.8549 11.5516 16.1517 10.8484C15.4484 10.1451 14.4946 9.75 13.5 9.75ZM13.5 15.75C13.055 15.75 12.62 15.618 12.25 15.3708C11.88 15.1236 11.5916 14.7722 11.4213 14.361C11.251 13.9499 11.2064 13.4975 11.2932 13.061C11.3801 12.6246 11.5943 12.2237 11.909 11.909C12.2237 11.5943 12.6246 11.3801 13.061 11.2932C13.4975 11.2064 13.9499 11.251 14.361 11.4213C14.7722 11.5916 15.1236 11.88 15.3708 12.25C15.618 12.62 15.75 13.055 15.75 13.5C15.75 14.0967 15.5129 14.669 15.091 15.091C14.669 15.5129 14.0967 15.75 13.5 15.75Z" fill="white"/>
</svg>
